<svg width="21" height="18" viewBox="0 0 21 18" fill="none" xmlns="http://www.w3.org/2000/svg">
<path d="M4.22333 7.79C5.90333 10.62 8.61 12.94 11.9117 14.38L14.4783 12.18C14.805 11.9 15.26 11.82 15.6683 11.93C16.975 12.3 18.375 12.5 19.8333 12.5C20.1428 12.5 20.4395 12.6054 20.6583 12.7929C20.8771 12.9804 21 13.2348 21 13.5V17C21 17.2652 20.8771 17.5196 20.6583 17.7071C20.4395 17.8946 20.1428 18 19.8333 18C14.5732 18 9.52852 16.2089 5.80905 13.0208C2.08958 9.8327 0 5.50868 0 1C0 0.734784 0.122916 0.48043 0.341709 0.292893C0.560501 0.105357 0.857247 0 1.16667 0H5.25C5.55942 0 5.85616 0.105357 6.07496 0.292893C6.29375 0.48043 6.41667 0.734784 6.41667 1C6.41667 2.25 6.65 3.45 7.08167 4.57C7.21 4.92 7.11667 5.31 6.79 5.59L4.22333 7.79Z" fill="white"/>
</svg>
