<svg width="25" height="22" viewBox="0 0 25 22" fill="none" xmlns="http://www.w3.org/2000/svg">
<path d="M5.02778 9.52111C7.02778 12.98 10.25 15.8156 14.1806 17.5756L17.2361 14.8867C17.625 14.5444 18.1667 14.4467 18.6528 14.5811C20.2083 15.0333 21.875 15.2778 23.6111 15.2778C23.9795 15.2778 24.3327 15.4065 24.5932 15.6358C24.8537 15.865 25 16.1758 25 16.5V20.7778C25 21.1019 24.8537 21.4128 24.5932 21.642C24.3327 21.8712 23.9795 22 23.6111 22C17.3491 22 11.3435 19.8109 6.91553 15.9143C2.48759 12.0177 0 6.73283 0 1.22222C0 0.898069 0.146329 0.587192 0.406796 0.357981C0.667263 0.128769 1.02053 0 1.38889 0H6.25C6.61836 0 6.97162 0.128769 7.23209 0.357981C7.49256 0.587192 7.63889 0.898069 7.63889 1.22222C7.63889 2.75 7.91667 4.21667 8.43055 5.58556C8.58333 6.01333 8.47222 6.49 8.08333 6.83222L5.02778 9.52111Z" fill="#E53935"/>
</svg>
