<svg width="20" height="24" viewBox="0 0 20 24" fill="none" xmlns="http://www.w3.org/2000/svg">
<path d="M10 0C14.1375 0 17.5 3.04 17.5 6.8C17.5 11.8971 10 19.4286 10 19.4286C10 19.4286 2.5 11.8971 2.5 6.8C2.5 3.04 5.8625 0 10 0ZM10 4.57143C9.33696 4.57143 8.70107 4.81224 8.23223 5.2409C7.76339 5.66955 7.5 6.25093 7.5 6.85714C7.5 7.46335 7.76339 8.04473 8.23223 8.47339C8.70107 8.90204 9.33696 9.14286 10 9.14286C10.663 9.14286 11.2989 8.90204 11.7678 8.47339C12.2366 8.04473 12.5 7.46335 12.5 6.85714C12.5 6.25093 12.2366 5.66955 11.7678 5.2409C11.2989 4.81224 10.663 4.57143 10 4.57143ZM20 19.4286C20 21.9543 15.525 24 10 24C4.475 24 0 21.9543 0 19.4286C0 17.9543 1.525 16.64 3.8875 15.8057L4.6875 16.8457C3.3375 17.36 2.5 18.0686 2.5 18.8571C2.5 20.4343 5.8625 21.7143 10 21.7143C14.1375 21.7143 17.5 20.4343 17.5 18.8571C17.5 18.0686 16.6625 17.36 15.3125 16.8457L16.1125 15.8057C18.475 16.64 20 17.9543 20 19.4286Z" fill="#E53935"/>
</svg>
