<svg width="15" height="18" viewBox="0 0 15 18" fill="none" xmlns="http://www.w3.org/2000/svg">
<path d="M7.5 0C10.6031 0 13.125 2.28 13.125 5.1C13.125 8.92286 7.5 14.5714 7.5 14.5714C7.5 14.5714 1.875 8.92286 1.875 5.1C1.875 2.28 4.39687 0 7.5 0ZM7.5 3.42857C7.00272 3.42857 6.52581 3.60918 6.17418 3.93067C5.82254 4.25216 5.625 4.6882 5.625 5.14286C5.625 5.59751 5.82254 6.03355 6.17418 6.35504C6.52581 6.67653 7.00272 6.85714 7.5 6.85714C7.99728 6.85714 8.47419 6.67653 8.82582 6.35504C9.17746 6.03355 9.375 5.59751 9.375 5.14286C9.375 4.6882 9.17746 4.25216 8.82582 3.93067C8.47419 3.60918 7.99728 3.42857 7.5 3.42857ZM15 14.5714C15 16.4657 11.6438 18 7.5 18C3.35625 18 0 16.4657 0 14.5714C0 13.4657 1.14375 12.48 2.91563 11.8543L3.51562 12.6343C2.50312 13.02 1.875 13.5514 1.875 14.1429C1.875 15.3257 4.39687 16.2857 7.5 16.2857C10.6031 16.2857 13.125 15.3257 13.125 14.1429C13.125 13.5514 12.4969 13.02 11.4844 12.6343L12.0844 11.8543C13.8562 12.48 15 13.4657 15 14.5714Z" fill="white"/>
</svg>
