<svg width="30" height="41" viewBox="0 0 30 41" fill="none" xmlns="http://www.w3.org/2000/svg">
<path d="M6.15375 10.2307V15.2307H24.2307V10.2307H6.15375Z" fill="white" stroke="#CDCDCD" stroke-width="0.5"/>
<path d="M8.46143 6.38464V10.2308H21.5384V6.38464H8.46143Z" fill="white" stroke="#CDCDCD" stroke-width="0.5"/>
<path d="M13.077 1V6.38462H17.6923V1H13.077Z" fill="white" stroke="#CDCDCD" stroke-width="0.5"/>
<path d="M28.4615 16.3846L24.9999 34.0769H15.3846H3.84609L0.769165 16.3846L15.3846 12.1538L28.4615 16.3846Z" fill="white"/>
<path d="M15.3846 12.1538L28.4615 16.3846L24.9999 34.0769C22.4576 34.0769 18.8801 34.0769 15.3846 34.0769M15.3846 12.1538L0.769165 16.3846L3.84609 34.0769C4.59829 34.0769 9.89026 34.0769 15.3846 34.0769M15.3846 12.1538V34.0769" stroke="#CDCDCD" stroke-width="0.5"/>
<path d="M13.8462 37.837C12.7769 37.837 11.7077 37.3135 10.7692 36.3558C8.89231 38.2601 6.49231 38.2601 4.61538 36.3558C3.67692 37.3135 2.60769 37.837 1.53846 37.837H0V40.0642H1.53846C2.59231 40.0642 3.64615 39.6744 4.61538 38.9506C6.53846 40.3983 8.84615 40.3983 10.7692 38.9506C11.7385 39.6744 12.7846 40.0642 13.8462 40.0642H15.3846V37.837" fill="white"/>
<path d="M28.4616 37.837C27.3924 37.837 26.3232 37.3135 25.3847 36.3558C23.5078 38.2601 21.1078 38.2601 19.2309 36.3558C18.2924 37.3135 17.2232 37.837 16.1539 37.837H14.6155V40.0642H16.1539C17.2078 40.0642 18.2616 39.6744 19.2309 38.9506C21.1539 40.3983 23.4616 40.3983 25.3847 38.9506C26.3539 39.6744 27.4001 40.0642 28.4616 40.0642H30.0001V37.837" fill="white"/>
</svg>
