<svg width="100" height="19" viewBox="0 0 100 19" fill="none" xmlns="http://www.w3.org/2000/svg">
<path d="M10 15.27L16.18 19L14.54 11.97L20 7.24L12.81 6.62L10 0L7.19 6.62L0 7.24L5.45 11.97L3.82 19L10 15.27Z" fill="#ED760A"/>
<path d="M30 15.27L36.18 19L34.54 11.97L40 7.24L32.81 6.62L30 0L27.19 6.62L20 7.24L25.45 11.97L23.82 19L30 15.27Z" fill="#ED760A"/>
<path d="M50 15.27L56.18 19L54.54 11.97L60 7.24L52.81 6.62L50 0L47.19 6.62L40 7.24L45.45 11.97L43.82 19L50 15.27Z" fill="#ED760A"/>
<path d="M70 15.27L76.18 19L74.54 11.97L80 7.24L72.81 6.62L70 0L67.19 6.62L60 7.24L65.45 11.97L63.82 19L70 15.27Z" fill="#ED760A"/>
<path d="M90 15.27L96.18 19L94.54 11.97L100 7.24L92.81 6.62L90 0L87.19 6.62L80 7.24L85.45 11.97L83.82 19L90 15.27Z" fill="#E1E1E1"/>
</svg>
