<svg width="60" height="43" viewBox="0 0 60 43" fill="none" xmlns="http://www.w3.org/2000/svg">
<path d="M5.45455 0C4.00791 0 2.62053 0.566293 1.5976 1.5743C0.574674 2.58231 0 3.94946 0 5.375V34.9375H5.45455C5.45455 37.0758 6.31656 39.1265 7.85094 40.6385C9.38533 42.1506 11.4664 43 13.6364 43C15.8063 43 17.8874 42.1506 19.4218 40.6385C20.9562 39.1265 21.8182 37.0758 21.8182 34.9375H38.1818C38.1818 37.0758 39.0438 39.1265 40.5782 40.6385C42.1126 42.1506 44.1937 43 46.3636 43C48.5336 43 50.6147 42.1506 52.1491 40.6385C53.6834 39.1265 54.5455 37.0758 54.5455 34.9375H60V21.5L51.8182 10.75H43.6364V0H5.45455ZM24.5455 5.375L35.4545 16.125L24.5455 26.875V18.8125H8.18182V13.4375H24.5455V5.375ZM43.6364 14.7812H50.4545L55.8273 21.5H43.6364V14.7812ZM13.6364 30.9062C14.7213 30.9062 15.7619 31.331 16.5291 32.087C17.2963 32.843 17.7273 33.8683 17.7273 34.9375C17.7273 36.0067 17.2963 37.032 16.5291 37.788C15.7619 38.544 14.7213 38.9688 13.6364 38.9688C12.5514 38.9688 11.5108 38.544 10.7437 37.788C9.97646 37.032 9.54545 36.0067 9.54545 34.9375C9.54545 33.8683 9.97646 32.843 10.7437 32.087C11.5108 31.331 12.5514 30.9062 13.6364 30.9062ZM46.3636 30.9062C47.4486 30.9062 48.4892 31.331 49.2563 32.087C50.0235 32.843 50.4545 33.8683 50.4545 34.9375C50.4545 36.0067 50.0235 37.032 49.2563 37.788C48.4892 38.544 47.4486 38.9688 46.3636 38.9688C45.2787 38.9688 44.2381 38.544 43.4709 37.788C42.7037 37.032 42.2727 36.0067 42.2727 34.9375C42.2727 33.8683 42.7037 32.843 43.4709 32.087C44.2381 31.331 45.2787 30.9062 46.3636 30.9062Z" fill="#E53935"/>
</svg>
