<svg width="38" height="38" viewBox="0 0 38 38" fill="none" xmlns="http://www.w3.org/2000/svg">
<path d="M36.6429 4.07143H31.5451C31.4551 4.07143 31.3688 4.03568 31.3052 3.97205C31.2415 3.90843 31.2058 3.82213 31.2058 3.73214V2.7075C31.204 1.9888 30.9172 1.30016 30.4084 0.792595C29.8996 0.285035 29.2102 -2.24593e-06 28.4915 0L9.50933 0.0220534C8.79137 0.0233979 8.10318 0.309146 7.59542 0.816744C7.08767 1.32434 6.8017 2.01244 6.80013 2.7304V3.73214C6.80013 3.82213 6.76439 3.90843 6.70076 3.97205C6.63713 4.03568 6.55083 4.07143 6.46085 4.07143H1.35714C0.997206 4.07143 0.652012 4.21441 0.397498 4.46893C0.142984 4.72344 0 5.06863 0 5.42857V6.78571C0 11.411 2.54464 16.3239 6.49054 17.4181C6.60722 17.4506 6.71277 17.5144 6.79576 17.6026C6.87875 17.6908 6.93599 17.8001 6.96129 17.9185C7.45071 20.1994 8.95629 22.3716 11.322 24.1622C13.0956 25.505 15.211 26.4948 17.1127 26.9172C17.2631 26.9509 17.3975 27.0348 17.4938 27.1551C17.5902 27.2753 17.6427 27.4248 17.6429 27.5788V34.9464C17.6429 35.0364 17.6071 35.1227 17.5435 35.1863C17.4799 35.25 17.3936 35.2857 17.3036 35.2857H12.2525C11.5221 35.2857 10.8953 35.8472 10.8588 36.5775C10.85 36.761 10.8785 36.9444 10.9426 37.1166C11.0068 37.2887 11.1052 37.4461 11.2319 37.5791C11.3586 37.7121 11.5111 37.818 11.6799 37.8903C11.8488 37.9627 12.0306 38 12.2143 38H25.7475C26.4779 38 27.1047 37.4385 27.1412 36.7082C27.15 36.5247 27.1215 36.3413 27.0574 36.1691C26.9932 35.997 26.8948 35.8396 26.7681 35.7066C26.6414 35.5736 26.4889 35.4678 26.3201 35.3954C26.1512 35.323 25.9694 35.2857 25.7857 35.2857H20.6964C20.6064 35.2857 20.5201 35.25 20.4565 35.1863C20.3929 35.1227 20.3571 35.0364 20.3571 34.9464V27.5788C20.3573 27.4248 20.4098 27.2753 20.5062 27.1551C20.6025 27.0348 20.7369 26.9509 20.8873 26.9172C22.789 26.4931 24.9044 25.505 26.678 24.1622C29.0437 22.3716 30.5493 20.1994 31.0387 17.9185C31.064 17.8001 31.1213 17.6908 31.2042 17.6026C31.2872 17.5144 31.3928 17.4506 31.5095 17.4181C35.4554 16.3239 38 11.411 38 6.78571V5.42857C38 5.06863 37.857 4.72344 37.6025 4.46893C37.348 4.21441 37.0028 4.07143 36.6429 4.07143ZM6.78571 14.099C6.7855 14.1585 6.76968 14.2168 6.73981 14.2682C6.70995 14.3197 6.6671 14.3623 6.61555 14.392C6.56401 14.4216 6.50559 14.4372 6.44613 14.4371C6.38667 14.4371 6.32828 14.4214 6.27679 14.3917C5.40652 13.8734 4.7712 13.0879 4.39884 12.5349C3.38862 11.0344 2.78723 9.08522 2.72022 7.13772C2.71851 7.09211 2.72602 7.04662 2.7423 7.00397C2.75859 6.96133 2.78331 6.92241 2.81498 6.88954C2.84666 6.85668 2.88465 6.83054 2.92666 6.8127C2.96868 6.79486 3.01386 6.78568 3.05951 6.78571H6.45237C6.54235 6.78571 6.62865 6.82146 6.69228 6.88509C6.75591 6.94872 6.79165 7.03502 6.79165 7.125C6.78996 9.45335 6.78571 12.1184 6.78571 14.099ZM33.6003 12.5349C33.2279 13.0879 32.5935 13.8734 31.7232 14.3917C31.6717 14.4214 31.6132 14.4371 31.5537 14.4371C31.4941 14.4371 31.4356 14.4215 31.3841 14.3917C31.3325 14.362 31.2897 14.3192 31.2599 14.2677C31.2301 14.2162 31.2143 14.1577 31.2143 14.0982C31.2143 11.8496 31.2143 9.29473 31.21 7.125C31.21 7.03502 31.2458 6.94872 31.3094 6.88509C31.373 6.82146 31.4593 6.78571 31.5493 6.78571H34.9422C34.9878 6.78568 35.033 6.79486 35.075 6.8127C35.1171 6.83054 35.155 6.85668 35.1867 6.88954C35.2184 6.92241 35.2431 6.96133 35.2594 7.00397C35.2757 7.04662 35.2832 7.09211 35.2815 7.13772C35.2145 9.08522 34.6105 11.0344 33.6003 12.5349Z" fill="#E53935"/>
</svg>
