<svg width="46" height="46" viewBox="0 0 46 46" fill="none" xmlns="http://www.w3.org/2000/svg">
<path d="M45.9053 8.25863L45.8241 6.98015L44.555 6.75465C35.673 5.17109 31.9652 4.02626 23.6767 0.306102L23 0L22.3233 0.306102C14.0348 4.02626 10.327 5.17109 1.445 6.75465L0.175854 6.98015L0.0947356 8.25863C-0.30059 14.4939 0.542429 20.3038 2.60326 25.5269C4.29086 29.7873 6.78838 33.6849 9.95939 37.0067C15.4498 42.7951 21.2791 45.3092 22.3911 45.7541L23.0072 46L23.6233 45.7541C24.7353 45.3092 30.5646 42.7951 36.055 37.0067C39.2208 33.6837 41.7134 29.7862 43.3967 25.5269C45.4576 20.3038 46.3006 14.4939 45.9053 8.25863ZM19.936 30.298L12.4618 23.0168L14.7618 20.6843L19.7388 25.5299L31.0472 12.5512L33.5321 14.6878L19.936 30.298Z" fill="#E53935"/>
</svg>
